<svg xmlns="http://www.w3.org/2000/svg" id="svg1" version="1.1" viewBox="27.354042372881356 54.11999339999999 164.90694915254238 193.05" style="max-height: 500px" width="164.90694915254238" height="193.05">
  
    
    
  
  <defs id="defs1">
    
    
    
    
    
    
    
    
    
    
    
    
    
    
    
    
    
    
    
    
    
  </defs>
  <g id="layer1">
    <g id="g1">
      <path transform="matrix(1.3737022,0.06060902,-0.06060902,1.3737022,-39.319037,-68.286989)" d="m 108.81514,85.803548 c -2.08695,-6e-5 -3.75871,1.625676 -3.73394,3.631135 l 0.29837,24.172037 c -27.096085,1.6128 -48.328085,25.97444 -47.970837,54.93695 0.369964,29.98852 23.746522,54.29936 52.212237,54.29933 12.0821,-0.0495 23.25841,-3.49703 33.29538,-10.64707 5.76658,-4.8537 10.44992,-11.24313 11.96059,-18.66588 0.0215,-0.0379 0.0432,-0.0756 0.0645,-0.11369 h -0.0422 c 0.35329,-1.77676 0.53311,-3.62573 0.50635,-5.52748 -0.18766,-13.33862 -10.07195,-24.13366 -21.63545,-24.13366 h -1.01055 c -4.8953,0 -11.11123,1.36028 -14.66436,8.23673 -0.4133,0.68654 -0.74069,1.42989 -0.9739,2.21137 -0.006,0.0176 -0.0135,0.0339 -0.0201,0.0516 -0.0101,0.0271 -0.005,0.0208 -0.0112,0.0426 -0.27983,0.94477 -0.41881,1.93348 -0.41161,2.92954 0.0642,5.19867 4.00924,9.41306 8.81105,9.413 4.80185,7e-5 8.61612,-4.60731 8.55199,-9.80598 -0.83137,-3.65591 -10.40989,-4.78798 -11.83808,-6.28255 2.78806,-2.95845 22.75135,-5.10814 24.07831,15.3085 0.11688,1.79835 -0.32447,4.67904 -1.0208,6.33812 -0.30732,0.73222 -0.66984,1.54062 -1.07331,2.3641 -2.49001,5.08211 -4.77089,7.54934 -10.23556,10.95999 -0.9418,0.5878 -2.57634,1.315 -3.63931,1.63547 -2.02848,0.61155 -3.72426,1.02409 -6.15526,1.06395 -18.88404,-1.6e-4 -31.717715,-13.53108 -31.955161,-32.78168 -0.02317,-1.87944 -0.03803,-12.71401 -2.746884,-10.11308 l -9.484112,6.60719 c 0.154618,0.88175 0.354196,1.75494 0.597049,2.61688 1.266924,4.49659 -0.0047,5.68272 -3.099583,2.02235 -3.030569,-3.58425 -5.074521,-7.88512 -5.858847,-12.50456 l 8.465369,-1.19096 6e-6,4.8e-4 c -0.55641,2.98406 -0.593623,6.0287 -0.109816,9.02218 l 12.244513,1.28083 c 1.163458,-12.88652 6.070575,-20.58748 20.275586,-23.59633 l 55.25715,-2.4103 c 2.77092,0.0495 5.03229,-2.06852 5.05087,-4.73066 -0.38593,-31.28168 -27.08813,-56.640564 -59.64085,-56.640492 z m 15.24622,10.551372 c 9.04099,-1.03e-4 16.45817,7.12378 16.56673,15.91162 0.10866,8.78803 -7.13274,15.9122 -16.17392,15.91209 -9.04099,-1.6e-4 -16.45795,-7.12425 -16.56624,-15.91209 -0.10839,-8.78766 7.13263,-15.91146 16.17343,-15.91162 z m -26.214187,37.52219 c 3.289847,-0.0705 6.562157,0.41936 9.665107,1.43399 4.26397,1.39428 3.5255,3.08288 -0.94447,3.68135 -0.004,4.9e-4 -0.007,9.2e-4 -0.0108,0.002 -13.564224,1.91813 -24.24624,11.54434 -26.476691,23.86079 l -8.47579,1.1829 c -2.413679,-14.40608 7.861618,-27.79221 22.952697,-29.90178 1.094872,-0.14936 2.193328,-0.23515 3.28995,-0.25866 z" style="fill:#1c5841;stroke-width:0.90222;stroke-linecap:round;stroke-linejoin:round" id="path4"/>
      <g style="fill:#000000;fill-opacity:1" transform="matrix(1.6264683,0,0,1.4390973,-11.450814,-79.824283)" id="g8">
        <g style="fill:#000000;fill-opacity:1" transform="translate(-15.035202,42.681303)" id="g10">
          <path d="m 96.343983,74.152578 a 3.5122006,3.9286427 0 0 1 -3.5122,3.928643 3.5122006,3.9286427 0 0 1 -3.5122,-3.928643 3.5122006,3.9286427 0 0 1 3.5122,-3.928643 3.5122006,3.9286427 0 0 1 3.5122,3.928643 z" style="fill:#000000;fill-opacity:1;stroke-width:1.4617;stroke-linecap:round;stroke-linejoin:round" id="path3"/>
        </g>
      </g>
      <path transform="matrix(0.81153242,-0.08341639,0.07374011,0.85937305,22.561616,46.120892)" d="m 91.674649,132.7105 c -15.607088,0.71679 -27.66255,14.32232 -26.929514,30.39207 l 8.76553,-0.40012 c 3.742354,-13.28384 15.761861,-22.71944 29.792525,-23.38784 0.004,-1.5e-4 0.008,-3e-4 0.0113,-4.5e-4 4.61965,-0.18335 5.57292,-1.95849 1.40117,-3.94081 -4.04777,-1.92342 -8.513583,-2.85462 -13.041049,-2.66282 z m -18.172173,30.01659 -8.755742,0.4106 c 0.245594,5.15401 1.811162,10.09166 4.466051,14.34729 2.71128,4.34603 4.146523,3.17868 3.395206,-1.8916 -0.144018,-0.97192 -0.242352,-1.95156 -0.294224,-2.93586 l 32.451423,-1.51846 -32.453143,1.4807 c -0.134271,-3.3373 0.267452,-6.67548 1.190449,-9.89222 z" style="fill:#d46240;fill-opacity:1;stroke-width:0.805;stroke-linecap:round;stroke-linejoin:round;stroke-dasharray:none" id="path12-1"/>
      <path d="m 111.37242,184.08736 a 12.104251,11.816055 0 0 1 12.09958,-11.81705 12.104251,11.816055 0 0 1 12.10892,11.80793 12.104251,11.816055 0 0 1 -12.09228,11.82417 12.104251,11.816055 0 0 1 -12.11621,-11.80079 l 12.10424,-0.0153 z" id="path19" style="fill:#d46240;fill-opacity:1;stroke-width:1.36132;stroke-linecap:round;stroke-linejoin:round;stroke-dasharray:none"/>
    </g>
  </g>
</svg>