<svg width="207" height="64" viewBox="0 0 207 64" fill="none" xmlns="http://www.w3.org/2000/svg">
<path d="M12.3823 62.3856L18.7407 18.0877C18.7407 17.669 18.9917 17.5015 19.2427 17.5015C19.4101 17.5015 19.5774 17.5852 19.661 18.0039L30.119 55.6027C31.123 59.706 34.7206 61.7157 38.5691 61.7157C42.585 61.7157 45.9315 59.6222 47.1028 55.3515L57.5608 18.0039C57.6445 17.669 57.8118 17.5015 58.0628 17.5015C58.3975 17.5015 58.4811 17.7527 58.4811 18.1714L63.9193 62.3856H76.3016L69.3575 14.1519C68.5208 8.12269 64.505 4.94061 58.8995 4.94061C53.796 4.94061 49.4454 7.36905 48.0231 12.8121L38.7364 47.7313C38.7364 47.9825 38.6528 47.9825 38.5691 47.9825C38.5691 47.9825 38.4854 47.9825 38.4854 47.7313L29.0314 12.5609C27.6928 7.11784 23.4259 4.94061 18.4061 4.94061C12.7169 4.94061 8.61741 8.03895 7.61344 13.9007L0 62.3856H12.3823ZM92.8671 14.7381C96.8829 14.7381 100.146 11.4722 100.146 7.36903C100.146 3.34956 96.8829 0 92.8671 0C88.8512 0 85.5047 3.34956 85.5047 7.36903C85.5047 11.4722 88.8512 14.7381 92.8671 14.7381ZM86.9269 20.9348V62.3856H98.8073V20.9348H86.9269ZM132.022 31.3184C138.799 31.3184 141.894 36.7614 141.894 43.1256V62.3856H153.775V41.7021C153.775 29.5599 146.496 19.7624 132.022 19.7624C117.548 19.7624 110.437 29.6436 110.437 41.7021V62.3856H122.317V43.1256C122.317 36.7614 125.329 31.3184 132.022 31.3184ZM184.061 63.5579C197.029 63.5579 206.566 54.2629 206.566 41.7021V1.84226H194.686L194.603 23.6981C191.591 21.2697 187.575 19.7624 183.392 19.7624C170.507 19.7624 161.639 28.8062 161.639 41.7021C161.639 53.6767 171.344 63.5579 184.061 63.5579ZM184.061 52.3369C177.953 52.3369 173.519 47.5638 173.519 41.7021C173.519 35.8403 177.953 30.9835 184.061 30.9835C190.168 30.9835 194.686 35.8403 194.686 41.7021C194.686 47.5638 190.168 52.3369 184.061 52.3369Z" fill="#1C5841"/>
</svg>
